<svg fill="#EF476F" width="16" height="16" viewBox="0 0 16 16" xmlns="http://www.w3.org/2000/svg"><path d="M14.148 7.52001L8.90003 5.33001V4.25001C8.90003 3.83751 8.54003 3.50001 8.10003 3.50001C7.66003 3.50001 7.30002 3.16251 7.30002 2.75001C7.30002 2.33751 7.66003 2.00001 8.10003 2.00001C8.54003 2.00001 8.90003 2.33751 8.90003 2.75001H10.5C10.5 1.37001 9.17202 0.275012 7.65202 0.537512C6.70802 0.702512 5.93203 1.41501 5.74803 2.30001C5.50803 3.47001 6.22802 4.50501 7.30002 4.86501V5.33751L2.05202 7.52751C1.34802 7.81251 0.900024 8.46501 0.900024 9.17751V9.18501C0.900024 10.19 1.76402 11 2.83602 11H4.10002V15.5H12.1V11H13.364C14.436 11 15.3 10.19 15.3 9.18501V9.17751C15.3 8.46501 14.852 7.81251 14.148 7.52001ZM13.364 9.50001H12.1V8.75001H4.10002V9.50001H2.83602C2.65202 9.50001 2.50002 9.35751 2.50002 9.17751C2.50002 9.05001 2.58002 8.93751 2.70002 8.89251L8.10003 6.64251L13.5 8.89251C13.62 8.94501 13.7 9.05751 13.7 9.18501C13.7 9.35751 13.548 9.50001 13.364 9.50001Z"></path></svg>