<?xml version="1.0" standalone="no"?>
<!DOCTYPE svg PUBLIC "-//W3C//DTD SVG 20010904//EN"
 "http://www.w3.org/TR/2001/REC-SVG-20010904/DTD/svg10.dtd">
<svg version="1.0" xmlns="http://www.w3.org/2000/svg"
 width="512.000000pt" height="512.000000pt" viewBox="0 0 512.000000 512.000000"
 preserveAspectRatio="xMidYMid meet">

<g transform="translate(0.000000,512.000000) scale(0.100000,-0.100000)"
fill="#000000" stroke="none">
<path d="M340 4344 c-30 -8 -59 -19 -63 -23 -12 -12 2169 -2200 2210 -2217 41
-18 105 -18 146 0 41 17 2223 2204 2211 2216 -5 5 -36 16 -69 24 -53 14 -298
16 -2220 15 -1871 0 -2167 -2 -2215 -15z"/>
<path d="M23 4048 c-17 -50 -18 -123 -18 -1488 0 -1365 1 -1438 18 -1487 10
-29 22 -53 25 -53 14 0 1532 1526 1532 1540 0 14 -1517 1540 -1532 1540 -3 0
-15 -24 -25 -52z"/>
<path d="M4301 3335 c-418 -421 -761 -769 -761 -775 0 -12 1519 -1540 1531
-1540 4 0 16 24 26 53 17 49 18 122 18 1487 0 1365 -1 1438 -18 1488 -10 28
-22 52 -26 52 -5 0 -351 -344 -770 -765z"/>
<path d="M1031 1573 c-419 -422 -758 -770 -754 -774 5 -5 35 -15 68 -23 53
-14 299 -16 2215 -16 1916 0 2162 2 2215 16 33 8 64 19 69 24 4 4 -336 354
-757 777 l-766 768 -233 -231 c-128 -128 -252 -243 -275 -257 -148 -93 -358
-92 -506 0 -23 14 -146 129 -272 254 -127 126 -234 229 -237 229 -3 0 -349
-345 -767 -767z"/>
</g>
</svg>
