<svg width="336" height="405" viewBox="0 0 336 405" fill="none" xmlns="http://www.w3.org/2000/svg">
<g opacity="0.15">
<path d="M107.62 200.741L107.111 201.33H-101.53C-118.609 201.33 -125.898 197.144 -128.819 192.853C-131.788 188.492 -131.663 181.982 -128.825 173.856C-126.063 165.949 -121.179 157.848 -116.848 151.595C-114.704 148.499 -112.74 145.919 -111.316 144.118C-110.605 143.219 -110.03 142.516 -109.639 142.044C-109.443 141.808 -109.292 141.63 -109.194 141.513C-109.144 141.455 -109.108 141.412 -109.085 141.386L-109.061 141.358L-109.058 141.354L-109.057 141.353L-109.057 141.352L36.1062 -26.5706H174.43C208.706 -26.5706 230.23 -14.2993 237.205 4.01377C244.266 22.5543 237.66 50.2865 208.554 83.9532L208.553 83.9534C179.069 118.063 153.334 147.84 134.971 169.09C125.789 179.714 118.45 188.207 113.407 194.044L107.62 200.741Z" stroke="#2178C0" stroke-width="10"/>
<path d="M299.754 321.814L299.752 321.816C265.114 361.909 225.311 407.961 198.276 439.214H-85.3601L111.686 211.331H265.617C299.881 211.331 321.406 223.6 328.385 241.908C335.45 260.442 328.853 288.164 299.754 321.814Z" stroke="#2178C0" stroke-width="10"/>
</g>
</svg>
