<svg width="212" height="409" viewBox="0 0 212 409" fill="none" xmlns="http://www.w3.org/2000/svg">
<path fill-rule="evenodd" clip-rule="evenodd" d="M204.5 25.5625C282.095 25.5625 345.094 88.5613 345.094 166.156C345.094 241.885 279.142 318.151 239.904 356.06C230.395 365.211 217.712 370.324 204.515 370.326C191.318 370.329 178.634 365.22 169.122 356.073C129.858 318.151 63.9062 241.885 63.9062 166.156C63.9062 88.5613 126.905 25.5625 204.5 25.5625Z" fill="#2178C0"/>
<path fill-rule="evenodd" clip-rule="evenodd" d="M179.692 27.7482C113.907 39.4814 63.9063 97.0225 63.9063 166.156C63.9063 241.885 129.858 318.151 169.122 356.073C178.398 364.989 190.699 370.075 203.563 370.315C216.428 370.554 228.909 365.929 238.511 357.364C226.852 356.383 215.888 351.413 207.465 343.292C168.201 305.37 102.25 229.104 102.25 153.375C102.25 98.4796 133.781 50.895 179.692 27.7482Z" fill="#0F2F43"/>
<path d="M204.5 217.281C176.264 217.281 153.375 194.392 153.375 166.156C153.375 137.921 176.264 115.031 204.5 115.031C232.736 115.031 255.625 137.921 255.625 166.156C255.625 194.392 232.736 217.281 204.5 217.281Z" fill="white"/>
</svg>
