<svg fill="#7EBCE6" width="16" height="16" viewBox="0 0 16 15" xmlns="http://www.w3.org/2000/svg"><path d="M10.928 8.78787L9.33704 10.3788L13.8342 14.876L15.4252 13.285L10.928 8.78787Z"></path><path d="M12.125 6.49998C13.5725 6.49998 14.75 5.32248 14.75 3.87498C14.75 3.43998 14.63 3.03498 14.4425 2.67498L12.4175 4.69998L11.3 3.58248L13.325 1.55748C12.965 1.36998 12.56 1.24998 12.125 1.24998C10.6775 1.24998 9.50001 2.42748 9.50001 3.87498C9.50001 4.18248 9.56001 4.47498 9.65751 4.74498L8.27001 6.13248L6.93501 4.79748L7.46751 4.26498L6.41001 3.20748L8.00001 1.61748C7.12251 0.739976 5.69751 0.739976 4.82001 1.61748L2.16501 4.27248L3.22251 5.32998H1.10751L0.575012 5.86248L3.23001 8.51748L3.76251 7.98498V5.86248L4.82001 6.91998L5.35251 6.38748L6.68751 7.72248L1.13001 13.28L2.72001 14.87L11.255 6.34248C11.525 6.43998 11.8175 6.49998 12.125 6.49998Z"></path></svg>