<?xml version="1.0" standalone="no"?>
<!DOCTYPE svg PUBLIC "-//W3C//DTD SVG 20010904//EN"
 "http://www.w3.org/TR/2001/REC-SVG-20010904/DTD/svg10.dtd">
<svg version="1.0" xmlns="http://www.w3.org/2000/svg"
 width="512.000000pt" height="512.000000pt" viewBox="0 0 512.000000 512.000000"
 preserveAspectRatio="xMidYMid meet">

<g transform="translate(0.000000,512.000000) scale(0.100000,-0.100000)"
fill="#000000" stroke="none">
<path d="M1175 4948 c-202 -73 -682 -591 -928 -1001 -89 -147 -94 -169 -73
-312 170 -1179 1446 -2678 2771 -3255 247 -107 558 -196 755 -215 82 -8 119 5
257 88 223 133 581 423 770 621 167 176 240 299 229 384 -11 74 -60 165 -117
216 -59 53 -423 297 -610 409 -151 91 -378 205 -469 237 -36 12 -95 25 -131
27 -122 10 -186 -34 -380 -263 l-130 -153 -37 14 c-221 79 -452 208 -635 354
-247 197 -451 449 -591 730 -70 140 -119 263 -114 285 2 7 69 70 149 139 210
180 258 246 259 356 0 151 -174 493 -505 990 -71 106 -148 215 -173 242 -75
84 -219 136 -297 107z"/>
</g>
</svg>
